<svg height="424pt" viewBox="0 0 424 424" width="424pt" xmlns="http://www.w3.org/2000/svg"><path d="m316 36h-304c-4.414062 0-8-3.585938-8-8v-16c0-4.414062 3.585938-8 8-8h304c4.414062 0 8 3.585938 8 8v16c0 4.414062-3.585938 8-8 8zm0 0" fill="#99a2b9"/><path d="m316 40h-304c-6.617188 0-12-5.382812-12-12v-16c0-6.617188 5.382812-12 12-12h304c6.617188 0 12 5.382812 12 12v16c0 6.617188-5.382812 12-12 12zm-304-32c-2.199219 0-4 1.792969-4 4v16c0 2.207031 1.800781 4 4 4h304c2.199219 0 4-1.792969 4-4v-16c0-2.207031-1.800781-4-4-4zm0 0" fill="#212a41"/><path d="m292 132c0 30.929688-25.070312 56-56 56s-56-25.070312-56-56 25.070312-56 56-56 56 25.070312 56 56zm0 0" fill="#005b8a"/><path d="m236 192c-33.089844 0-60-26.910156-60-60s26.910156-60 60-60 60 26.910156 60 60-26.910156 60-60 60zm0-112c-28.671875 0-52 23.328125-52 52s23.328125 52 52 52 52-23.328125 52-52-23.328125-52-52-52zm0 0" fill="#212a41"/><path d="m196 260c0 30.929688-25.070312 56-56 56s-56-25.070312-56-56 25.070312-56 56-56 56 25.070312 56 56zm0 0" fill="#005b8a"/><path d="m140 320c-33.089844 0-60-26.910156-60-60s26.910156-60 60-60 60 26.910156 60 60-26.910156 60-60 60zm0-112c-28.671875 0-52 23.328125-52 52s23.328125 52 52 52 52-23.328125 52-52-23.328125-52-52-52zm0 0" fill="#212a41"/><path d="m412 36h-304c-4.414062 0-8-3.585938-8-8v-16c0-4.414062 3.585938-8 8-8h304c4.414062 0 8 3.585938 8 8v16c0 4.414062-3.585938 8-8 8zm0 0" fill="#b7c0d7"/><path d="m412 40h-304c-6.617188 0-12-5.382812-12-12v-16c0-6.617188 5.382812-12 12-12h304c6.617188 0 12 5.382812 12 12v16c0 6.617188-5.382812 12-12 12zm-304-32c-2.199219 0-4 1.792969-4 4v16c0 2.207031 1.800781 4 4 4h304c2.199219 0 4-1.792969 4-4v-16c0-2.207031-1.800781-4-4-4zm0 0" fill="#212a41"/><path d="m160 308c-33.089844 0-60-26.910156-60-60v-212h24v212c0 19.847656 16.152344 36 36 36s36-16.152344 36-36v-112c0-33.089844 26.910156-60 60-60s60 26.910156 60 60v204h-24v-204c0-19.847656-16.152344-36-36-36s-36 16.152344-36 36v112c0 33.089844-26.910156 60-60 60zm0 0" fill="#c2c2c2"/><path d="m316 344h-24c-2.207031 0-4-1.792969-4-4v-204c0-17.648438-14.351562-32-32-32s-32 14.351562-32 32v112c0 35.289062-28.710938 64-64 64s-64-28.710938-64-64v-212c0-2.207031 1.792969-4 4-4h24c2.207031 0 4 1.792969 4 4v212c0 17.648438 14.351562 32 32 32s32-14.351562 32-32v-112c0-35.289062 28.710938-64 64-64s64 28.710938 64 64v204c0 2.207031-1.792969 4-4 4zm-20-8h16v-200c0-30.878906-25.128906-56-56-56s-56 25.121094-56 56v112c0 22.054688-17.945312 40-40 40s-40-17.945312-40-40v-208h-16v208c0 30.878906 25.128906 56 56 56s56-25.121094 56-56v-112c0-22.054688 17.945312-40 40-40s40 17.945312 40 40zm0 0" fill="#212a41"/><path d="m324 132c0 30.929688-25.070312 56-56 56s-56-25.070312-56-56 25.070312-56 56-56 56 25.070312 56 56zm0 0" fill="#0079a8"/><path d="m268 192c-33.089844 0-60-26.910156-60-60s26.910156-60 60-60 60 26.910156 60 60-26.910156 60-60 60zm0-112c-28.671875 0-52 23.328125-52 52s23.328125 52 52 52 52-23.328125 52-52-23.328125-52-52-52zm0 0" fill="#212a41"/><path d="m228 260c0 30.929688-25.070312 56-56 56s-56-25.070312-56-56 25.070312-56 56-56 56 25.070312 56 56zm0 0" fill="#0079a8"/><path d="m172 320c-33.089844 0-60-26.910156-60-60s26.910156-60 60-60 60 26.910156 60 60-26.910156 60-60 60zm0-112c-28.671875 0-52 23.328125-52 52s23.328125 52 52 52 52-23.328125 52-52-23.328125-52-52-52zm0 0" fill="#212a41"/><path d="m172 304c-2.207031 0-4-1.792969-4-4s1.792969-4 4-4c19.847656 0 36-16.152344 36-36 0-2.207031 1.792969-4 4-4s4 1.792969 4 4c0 24.265625-19.742188 44-44 44zm0 0" fill="#005b8a"/><path d="m132 264c-2.207031 0-4-1.792969-4-4 0-24.265625 19.742188-44 44-44 2.207031 0 4 1.792969 4 4s-1.792969 4-4 4c-19.847656 0-36 16.152344-36 36 0 2.207031-1.792969 4-4 4zm0 0" fill="#1e97c6"/><path d="m268 176c-2.207031 0-4-1.792969-4-4s1.792969-4 4-4c19.847656 0 36-16.152344 36-36 0-2.207031 1.792969-4 4-4s4 1.792969 4 4c0 24.265625-19.742188 44-44 44zm0 0" fill="#005b8a"/><path d="m228 136c-2.207031 0-4-1.792969-4-4 0-24.265625 19.742188-44 44-44 2.207031 0 4 1.792969 4 4s-1.792969 4-4 4c-19.847656 0-36 16.152344-36 36 0 2.207031-1.792969 4-4 4zm0 0" fill="#1e97c6"/><path d="m188 260c0 8.835938-7.164062 16-16 16s-16-7.164062-16-16 7.164062-16 16-16 16 7.164062 16 16zm0 0" fill="#b7c0d7"/><path d="m172 280c-11.03125 0-20-8.976562-20-20s8.96875-20 20-20 20 8.976562 20 20-8.96875 20-20 20zm0-32c-6.617188 0-12 5.382812-12 12s5.382812 12 12 12 12-5.382812 12-12-5.382812-12-12-12zm0 0" fill="#212a41"/><path d="m256 36h24v96h-24zm0 0" fill="#e0e0e0"/><path d="m280 136h-24c-2.207031 0-4-1.792969-4-4v-96c0-2.207031 1.792969-4 4-4h24c2.207031 0 4 1.792969 4 4v96c0 2.207031-1.792969 4-4 4zm-20-8h16v-88h-16zm0 0" fill="#212a41"/><path d="m284 132c0 8.835938-7.164062 16-16 16s-16-7.164062-16-16 7.164062-16 16-16 16 7.164062 16 16zm0 0" fill="#b7c0d7"/><path d="m268 152c-11.03125 0-20-8.976562-20-20s8.96875-20 20-20 20 8.976562 20 20-8.96875 20-20 20zm0-32c-6.617188 0-12 5.382812-12 12s5.382812 12 12 12 12-5.382812 12-12-5.382812-12-12-12zm0 0" fill="#212a41"/><path d="m312 340h-64c-4.414062 0-8 3.585938-8 8v64c0 4.414062 3.585938 8 8 8h64c4.414062 0 8-3.585938 8-8v-64c0-4.414062-3.585938-8-8-8zm0 0" fill="#db8e11"/><path d="m312 424h-64c-6.617188 0-12-5.382812-12-12v-64c0-6.617188 5.382812-12 12-12h64c6.617188 0 12 5.382812 12 12v64c0 6.617188-5.382812 12-12 12zm-64-80c-2.199219 0-4 1.792969-4 4v64c0 2.207031 1.800781 4 4 4h64c2.199219 0 4-1.792969 4-4v-64c0-2.207031-1.800781-4-4-4zm0 0" fill="#212a41"/><path d="m360 340h-64c-4.414062 0-8 3.585938-8 8v64c0 4.414062 3.585938 8 8 8h64c4.414062 0 8-3.585938 8-8v-64c0-4.414062-3.585938-8-8-8zm0 0" fill="#f9ac2f"/><g fill="#212a41"><path d="m360 424h-64c-6.617188 0-12-5.382812-12-12v-64c0-6.617188 5.382812-12 12-12h64c6.617188 0 12 5.382812 12 12v64c0 6.617188-5.382812 12-12 12zm-64-80c-2.199219 0-4 1.792969-4 4v64c0 2.207031 1.800781 4 4 4h64c2.199219 0 4-1.792969 4-4v-64c0-2.207031-1.800781-4-4-4zm0 0"/><path d="m380 296c-2.207031 0-4-1.792969-4-4v-112c0-2.207031 1.792969-4 4-4s4 1.792969 4 4v112c0 2.207031-1.792969 4-4 4zm0 0"/><path d="m356 264c-2.207031 0-4-1.792969-4-4v-48c0-2.207031 1.792969-4 4-4s4 1.792969 4 4v48c0 2.207031-1.792969 4-4 4zm0 0"/></g><path d="m304 408c-2.207031 0-4-1.792969-4-4v-48c0-2.207031 1.792969-4 4-4s4 1.792969 4 4v48c0 2.207031-1.792969 4-4 4zm0 0" fill="#ffca4d"/><path d="m352 408c-2.207031 0-4-1.792969-4-4v-48c0-2.207031 1.792969-4 4-4s4 1.792969 4 4v48c0 2.207031-1.792969 4-4 4zm0 0" fill="#db8e11"/></svg>